<svg xmlns="http://www.w3.org/2000/svg" width="1024" height="1024" viewBox="0 0 1024 1024" version="1.1">
	<path d="M 482.500 173.122 C 449.995 175.605, 418.617 182.633, 386.650 194.591 C 322.862 218.451, 264.057 266.738, 224.788 327.500 C 217.846 338.242, 208.630 354.541, 204.967 362.557 C 203.724 365.275, 201.378 370.425, 199.754 374 C 188.263 399.298, 179.416 430.621, 174.335 464 C 171.196 484.618, 170.076 521.555, 171.965 542.151 C 181.748 648.806, 241.029 745.154, 331.760 801.863 C 374.179 828.377, 420.510 844.606, 473.500 851.516 C 490.876 853.782, 532.200 853.832, 550.500 851.609 C 593.517 846.385, 629.403 835.770, 666.159 817.399 C 716.406 792.285, 763.495 749.920, 796.646 700 C 844.641 627.728, 862.826 540.180, 847.982 452.847 C 831.234 354.312, 770.828 267.332, 684.591 217.574 C 638.676 191.083, 592.619 177.043, 538.500 173.043 C 522.499 171.860, 498.577 171.894, 482.500 173.122 M 477.500 215.605 C 383.205 226.401, 300.488 280.793, 253.495 362.905 C 252.457 364.718, 253.965 363.815, 260.314 358.825 C 267.212 353.403, 282.967 344.798, 293.874 340.497 C 325.560 328, 366.634 324.571, 400.755 331.574 C 420.574 335.642, 444.082 346.093, 461.960 358.784 C 473.348 366.869, 487.242 380.359, 496.377 392.201 C 503.265 401.130, 521.937 429.961, 534.972 451.797 C 539.144 458.785, 542.820 463.899, 543.487 463.643 C 544.133 463.395, 559.376 453.448, 577.362 441.538 C 612.867 418.026, 620.708 413.423, 632.652 409.075 C 646.664 403.976, 655.794 402.541, 673.500 402.658 C 687.171 402.748, 690.893 403.129, 699.074 405.279 C 751.135 418.962, 782.380 461.104, 779.681 514 C 777.041 565.730, 739.648 605.677, 685 615.148 C 674.442 616.978, 649.567 616.692, 638.759 614.617 C 614.697 609.997, 590.795 597.958, 573.361 581.676 C 561.289 570.403, 551.930 557.910, 537.949 534.407 C 535.035 529.508, 532.558 525.367, 532.446 525.204 C 532.245 524.913, 500.181 545.542, 496.756 548.164 C 495.156 549.391, 495.842 550.729, 505.129 564.500 C 518.784 584.748, 528.152 596.369, 541.549 609.678 C 558.570 626.588, 573.542 637.134, 595.145 647.429 C 644.212 670.812, 701.590 670.793, 748.344 647.376 C 769.844 636.608, 783.534 623.803, 792.428 606.143 C 811.310 568.649, 816.773 507.249, 805.942 454.274 C 796.531 408.247, 774.464 360.913, 745.251 324.092 C 735.479 311.774, 713.188 289.485, 701 279.844 C 659.576 247.076, 616.710 227.635, 565.500 218.391 C 541.571 214.071, 501.873 212.815, 477.500 215.605 M 336.597 372.607 C 292.840 380.509, 253.228 414.655, 237.536 458 C 231.943 473.450, 229.909 485.063, 229.306 505 C 228.828 520.761, 229.067 525.721, 230.919 538.500 C 237.570 584.383, 255.635 628.923, 286.264 674.954 C 300.787 696.779, 313.539 712.311, 331.642 730.223 C 378.058 776.150, 433.024 802.852, 495.999 810.066 C 509.447 811.607, 544.769 810.743, 559 808.526 C 591.683 803.435, 617.264 795.373, 645.367 781.308 C 669.819 769.070, 692.311 753.485, 714.185 733.620 C 730.849 718.488, 756.675 689.262, 751.450 691.449 C 735.968 697.931, 710.432 704.084, 691.144 705.981 C 615.200 713.451, 541.095 680.326, 489.844 616 C 481.580 605.628, 466.668 584.601, 461.779 576.427 L 458.695 571.272 446.598 579.503 C 414.853 601.102, 398.043 606.917, 371 605.653 C 336.136 604.023, 304.863 586.695, 287.199 559.220 C 271.233 534.387, 267.858 499.578, 278.746 472.050 C 288.669 446.962, 308.425 427.867, 333.177 419.442 C 343.577 415.902, 353.696 414.644, 366.798 415.263 C 387.891 416.261, 406.548 424.303, 422.594 439.315 C 431.953 448.072, 437.662 456.159, 458.380 490 C 465.282 501.275, 471.283 511.028, 471.715 511.674 C 472.255 512.481, 477.646 509.429, 489 501.885 C 498.075 495.856, 506.145 490.539, 506.934 490.069 C 508.073 489.391, 506.129 485.640, 497.497 471.857 C 470.539 428.813, 460.066 414.980, 443.497 400.530 C 425.937 385.215, 408.704 376.956, 385.140 372.560 C 374.541 370.582, 347.662 370.608, 336.597 372.607 M 654.362 446.917 C 643.735 449.799, 639.758 452.121, 601.892 477.558 L 567.145 500.900 575.640 514.700 C 590.794 539.315, 600.650 550.716, 614.812 560.014 C 629.362 569.566, 645.402 574.198, 664 574.220 C 677.597 574.236, 686.552 572.181, 699.675 566.031 C 723.800 554.726, 738 533.526, 738 508.816 C 738 498.443, 736.140 490.863, 731.053 480.500 C 723.653 465.426, 710.490 454.106, 693.901 448.552 C 682.488 444.731, 665.078 444.011, 654.362 446.917 M 353 458.154 C 330.846 461.768, 314 483.312, 314 508.029 C 314 521.700, 319.330 534.192, 329.523 544.412 C 348.908 563.847, 377.497 568.271, 403.897 555.921 C 413.415 551.467, 435.918 537.069, 435.967 535.400 C 435.985 534.795, 434.742 532.545, 433.205 530.400 C 431.668 528.255, 426.197 519.756, 421.049 511.514 C 398.030 474.664, 392.682 467.913, 382.366 462.685 C 373.627 458.257, 362.701 456.571, 353 458.154" stroke="none" fill="#6366f1" fill-rule="evenodd"/>
</svg>